<svg width="75" height="37" viewBox="0 0 75 37" fill="none" xmlns="http://www.w3.org/2000/svg">
<path d="M0 35.8605L0.0456108 1.12681C0.0456108 0.502925 0.566877 0 1.20543 0H22.2515C22.7467 0 23.1898 0.311941 23.3527 0.776669L26.1154 8.88076C26.363 9.61287 25.8092 10.3704 25.0142 10.3704H11.6177C10.9792 10.3704 10.4579 10.8797 10.4579 11.5036L10.5035 25.5028C10.5035 26.1266 11.0248 26.6296 11.6633 26.6296H28.2917C28.7804 26.6296 29.2104 26.3304 29.3798 25.8847L38.7757 0.744838C38.9451 0.299209 39.3751 0 39.8638 0H73.7656C74.4042 0 74.9255 0.509291 74.9255 1.13317L74.8798 35.8668C74.8798 36.4907 74.3586 36.9936 73.72 36.9936H53.0844C52.5827 36.9936 52.1396 36.6753 51.9832 36.2106L49.2987 28.1065C49.0576 27.3744 49.6115 26.6296 50.3999 26.6296H63.2035C63.842 26.6296 64.3633 26.1203 64.3633 25.4964L64.3177 11.4972C64.3177 10.8734 63.7964 10.3704 63.1579 10.3704H46.347C45.8714 10.3704 45.4414 10.6569 45.2654 11.0962L35.3092 36.2743C35.1398 36.7072 34.7098 37 34.2276 37H1.15982C0.51475 36.9936 0 36.4843 0 35.8605Z" fill="#27343C"/>
<path d="M52.713 18.5636C52.6935 19.4231 51.9116 20.1552 51.0189 20.1424C50.1067 20.1297 49.3965 19.3976 49.4225 18.4936C49.4486 17.5705 50.1523 16.9084 51.0906 16.9275C52.0093 16.9466 52.7326 17.6787 52.713 18.5573V18.5636Z" fill="#27343C"/>
<path d="M59.2874 18.57C59.2678 19.4676 58.499 20.1807 57.6128 20.1361C56.7006 20.0915 55.9904 19.3531 56.0099 18.4809C56.036 17.596 56.7853 16.9021 57.6975 16.9212C58.6162 16.9403 59.3004 17.6533 59.2809 18.57H59.2874Z" fill="#27343C"/>
<path d="M55.997 21.8804C55.9123 22.7844 55.1369 23.4401 54.2377 23.3701C53.3255 23.3 52.6609 22.5425 52.7261 21.6449C52.7912 20.7472 53.5471 20.1106 54.4788 20.1743C55.3975 20.2379 56.0817 21.0019 55.997 21.8804Z" fill="#27343C"/>
<path d="M55.997 15.3551C55.971 16.24 55.2021 16.9403 54.2964 16.9084C53.3647 16.883 52.7066 16.1827 52.7326 15.2405C52.7587 14.3365 53.4885 13.6553 54.4137 13.6808C55.3129 13.7063 56.0231 14.4575 55.997 15.3551Z" fill="#27343C"/>
<path d="M19.795 22.5489L18.0878 23.23C17.8207 23.3383 17.5275 23.1473 17.5275 22.8608V14.3365C17.5275 14.1647 17.6382 14.0119 17.8011 13.9609L19.5083 13.3944C19.7754 13.3052 20.0491 13.4962 20.0491 13.77V22.1796C20.0491 22.3388 19.9514 22.4852 19.795 22.5489Z" fill="#27343C"/>
<path d="M23.1182 17.335L23.8154 19.0029C23.9261 19.2639 23.7307 19.5504 23.4375 19.5504H14.7128C14.5368 19.5504 14.3805 19.4421 14.3283 19.283L13.7484 17.6151C13.6572 17.354 13.8527 17.0867 14.1329 17.0867H22.7403C22.9032 17.0867 23.053 17.1822 23.1182 17.335Z" fill="#27343C"/>
</svg>
